<svg width="11" height="14" viewBox="0 0 11 14" fill="none" xmlns="http://www.w3.org/2000/svg">
<path d="M5.5 0.75C3.77406 0.75 2.375 2.14906 2.375 3.875C2.375 5.60094 3.77406 7 5.5 7C7.22594 7 8.625 5.60094 8.625 3.875C8.625 2.14906 7.22594 0.75 5.5 0.75ZM1.82812 8.25C1.47594 8.25 1.13817 8.38988 0.889109 8.63889C0.640046 8.88789 0.500083 9.22563 0.5 9.57781V9.8125C0.5 10.9859 1.10688 11.8647 2.0375 12.4313C2.95312 12.9884 4.18313 13.25 5.5 13.25C6.81687 13.25 8.04688 12.9884 8.9625 12.4313C9.89313 11.8647 10.5 10.9859 10.5 9.8125V9.57781C10.4999 9.22563 10.36 8.88789 10.1109 8.63889C9.86183 8.38988 9.52406 8.25 9.17188 8.25H1.82812Z" fill="#0000FF"/>
</svg>
