<svg width="15" height="14" viewBox="0 0 15 14" fill="none" xmlns="http://www.w3.org/2000/svg">
<path fill-rule="evenodd" clip-rule="evenodd" d="M13.125 7C13.125 5.50816 12.5324 4.07742 11.4775 3.02252C10.4226 1.96763 8.99184 1.375 7.5 1.375V0.125C11.2969 0.125 14.375 3.20313 14.375 7C14.375 10.7969 11.2969 13.875 7.5 13.875C3.70313 13.875 0.625 10.7969 0.625 7H1.875C1.875 7.73869 2.02049 8.47014 2.30318 9.1526C2.58586 9.83505 3.0002 10.4551 3.52252 10.9775C4.04485 11.4998 4.66495 11.9141 5.34741 12.1968C6.02986 12.4795 6.76131 12.625 7.5 12.625C8.23869 12.625 8.97014 12.4795 9.6526 12.1968C10.3351 11.9141 10.9551 11.4998 11.4775 10.9775C11.9998 10.4551 12.4141 9.83505 12.6968 9.1526C12.9795 8.47014 13.125 7.73869 13.125 7ZM2.4375 4.54563C2.23264 4.96803 2.08146 5.41442 1.9875 5.87438L0.7625 5.62563C0.87875 5.055 1.065 4.50938 1.3125 3.99938L2.4375 4.54563ZM3 3.625C3.31976 3.19837 3.69855 2.81937 4.125 2.49938L3.375 1.49938C2.85384 1.89025 2.39087 2.35321 2 2.87438L3 3.625ZM6.37438 1.4875C5.91442 1.58146 5.46803 1.73264 5.04563 1.9375L4.49938 0.8125C5.01615 0.561989 5.56228 0.377217 6.125 0.2625L6.37438 1.4875ZM6.71875 4.1875V6.21875H4.6875V7.78125H6.71875V9.8125H8.28125V7.78125H10.3125V6.21875H8.28125V4.1875H6.71875Z" fill="#0000FF"/>
</svg>
